<mxfile host="www.draw.io" modified="2019-11-17T05:56:04.774Z" agent="Mozilla/5.0 (Windows NT 10.0; Win64; x64) AppleWebKit/537.36 (KHTML, like Gecko) Chrome/78.0.3904.97 Safari/537.36" etag="ohILwledAwYdfGXqIg6G" version="12.2.6" type="github" pages="1">
  <diagram id="WRIf5VH_WTbx7kl-aM-0" name="Page-1">
    <mxGraphModel dx="1024" dy="534" grid="1" gridSize="10" guides="1" tooltips="1" connect="1" arrows="1" fold="1" page="1" pageScale="1" pageWidth="827" pageHeight="1169" math="0" shadow="0">
      <root>
        <mxCell id="0"/>
        <mxCell id="1" parent="0"/>
        <mxCell id="Vb1UNo9LtLjnAaerWlSG-5" style="edgeStyle=orthogonalEdgeStyle;rounded=0;orthogonalLoop=1;jettySize=auto;html=1;endArrow=block;endFill=1;entryX=0;entryY=0.5;entryDx=0;entryDy=0;" edge="1" parent="1" source="Vb1UNo9LtLjnAaerWlSG-1" target="Vb1UNo9LtLjnAaerWlSG-2">
          <mxGeometry relative="1" as="geometry">
            <mxPoint x="420" y="180" as="targetPoint"/>
          </mxGeometry>
        </mxCell>
        <mxCell id="Vb1UNo9LtLjnAaerWlSG-1" value="Validate QR code" style="ellipse;whiteSpace=wrap;html=1;aspect=fixed;fontSize=13;fontStyle=1" vertex="1" parent="1">
          <mxGeometry x="220" y="130" width="100" height="100" as="geometry"/>
        </mxCell>
        <mxCell id="Vb1UNo9LtLjnAaerWlSG-12" style="edgeStyle=orthogonalEdgeStyle;rounded=0;orthogonalLoop=1;jettySize=auto;html=1;endArrow=block;endFill=1;" edge="1" parent="1" source="Vb1UNo9LtLjnAaerWlSG-2">
          <mxGeometry relative="1" as="geometry">
            <mxPoint x="650" y="180" as="targetPoint"/>
          </mxGeometry>
        </mxCell>
        <mxCell id="Vb1UNo9LtLjnAaerWlSG-2" value="Verify User" style="ellipse;whiteSpace=wrap;html=1;aspect=fixed;fontSize=13;fontStyle=1" vertex="1" parent="1">
          <mxGeometry x="440" y="127.5" width="105" height="105" as="geometry"/>
        </mxCell>
        <mxCell id="Vb1UNo9LtLjnAaerWlSG-3" value="" style="endArrow=block;html=1;endFill=1;entryX=0;entryY=0.5;entryDx=0;entryDy=0;" edge="1" parent="1" target="Vb1UNo9LtLjnAaerWlSG-1">
          <mxGeometry width="50" height="50" relative="1" as="geometry">
            <mxPoint x="90" y="180" as="sourcePoint"/>
            <mxPoint x="180" y="160" as="targetPoint"/>
          </mxGeometry>
        </mxCell>
        <mxCell id="Vb1UNo9LtLjnAaerWlSG-4" value="upload QR code" style="text;html=1;resizable=0;points=[];autosize=1;align=left;verticalAlign=top;spacingTop=-4;" vertex="1" parent="1">
          <mxGeometry x="110" y="160" width="100" height="20" as="geometry"/>
        </mxCell>
        <mxCell id="Vb1UNo9LtLjnAaerWlSG-8" value="capture image" style="text;html=1;resizable=0;points=[];autosize=1;align=left;verticalAlign=top;spacingTop=-4;" vertex="1" parent="1">
          <mxGeometry x="335" y="160" width="90" height="20" as="geometry"/>
        </mxCell>
        <mxCell id="Vb1UNo9LtLjnAaerWlSG-9" value="" style="shape=link;html=1;endArrow=block;endFill=1;width=30;" edge="1" parent="1">
          <mxGeometry width="50" height="50" relative="1" as="geometry">
            <mxPoint x="427.5" y="330" as="sourcePoint"/>
            <mxPoint x="557.5" y="330" as="targetPoint"/>
          </mxGeometry>
        </mxCell>
        <mxCell id="Vb1UNo9LtLjnAaerWlSG-10" value="User information" style="text;html=1;resizable=0;points=[];autosize=1;align=left;verticalAlign=top;spacingTop=-4;fontSize=13;fontStyle=1" vertex="1" parent="1">
          <mxGeometry x="442.5" y="320" width="100" height="20" as="geometry"/>
        </mxCell>
        <mxCell id="Vb1UNo9LtLjnAaerWlSG-11" value="" style="endArrow=block;html=1;endFill=1;entryX=0.5;entryY=1;entryDx=0;entryDy=0;" edge="1" parent="1" target="Vb1UNo9LtLjnAaerWlSG-2">
          <mxGeometry width="50" height="50" relative="1" as="geometry">
            <mxPoint x="493" y="310" as="sourcePoint"/>
            <mxPoint x="490" y="250" as="targetPoint"/>
          </mxGeometry>
        </mxCell>
        <mxCell id="Vb1UNo9LtLjnAaerWlSG-13" value="Vote" style="text;html=1;resizable=0;points=[];autosize=1;align=left;verticalAlign=top;spacingTop=-4;" vertex="1" parent="1">
          <mxGeometry x="660" y="170" width="40" height="20" as="geometry"/>
        </mxCell>
        <mxCell id="Vb1UNo9LtLjnAaerWlSG-14" value="user image" style="text;html=1;resizable=0;points=[];autosize=1;align=left;verticalAlign=top;spacingTop=-4;" vertex="1" parent="1">
          <mxGeometry x="500" y="266.5" width="70" height="20" as="geometry"/>
        </mxCell>
      </root>
    </mxGraphModel>
  </diagram>
</mxfile>
